<svg viewBox="0 0 14 14" fill="none" xmlns="http://www.w3.org/2000/svg">
<path d="M6.98894 9.92838C6.86175 9.92854 6.73598 9.90157 6.62004 9.84926C6.5041 9.79695 6.40064 9.72052 6.31658 9.62506L2.50135 5.28835C2.38077 5.14465 2.32119 4.95946 2.33537 4.7724C2.34954 4.58534 2.43634 4.41125 2.5772 4.28735C2.71807 4.16346 2.90181 4.09959 3.08915 4.10941C3.27649 4.11923 3.45256 4.20195 3.5797 4.33989L6.91584 8.13218C6.92496 8.14259 6.9362 8.15093 6.94881 8.15664C6.96142 8.16236 6.9751 8.16531 6.98894 8.16531C7.00279 8.16531 7.01647 8.16236 7.02908 8.15664C7.04169 8.15093 7.05293 8.14259 7.06205 8.13218L10.3982 4.33989C10.4597 4.26656 10.5353 4.20627 10.6205 4.16256C10.7056 4.11886 10.7987 4.09261 10.8941 4.08538C10.9896 4.07815 11.0855 4.09007 11.1763 4.12044C11.2671 4.15082 11.3509 4.19904 11.4228 4.26226C11.4946 4.32548 11.5532 4.40243 11.5949 4.4886C11.6366 4.57476 11.6607 4.66839 11.6657 4.76398C11.6707 4.85958 11.6565 4.95522 11.624 5.04527C11.5916 5.13531 11.5414 5.21796 11.4765 5.28835L7.66247 9.62351C7.57826 9.7192 7.47465 9.79588 7.35853 9.84845C7.2424 9.90101 7.11641 9.92826 6.98894 9.92838V9.92838Z" fill="#6F7B8D"/>
</svg>
